<svg version="1.0" xmlns="http://www.w3.org/2000/svg" width="440" height="440" viewBox="0 0 330 330"><path d="M220.6 60.4c-10.8 11.1-30.1 31.8-30.7 32.9-.4.7 1.1 4.3 3.3 8.2 2.2 3.8 5.7 10 7.7 13.8 2 3.7 4.1 7.5 4.6 8.5.6.9 3.4 6.2 6.4 11.7 3 5.5 6.3 11.5 7.3 13.2 1 1.8 2.7 5 3.9 7 1.1 2.1 2.4 4.2 2.8 4.6.9.9 4.5-2.6 26.6-25.8 8.8-9.3 17.8-18.7 20-21 3.7-3.9 18.7-19.8 37.5-39.8 4.1-4.4 9.2-9.8 11.3-11.9 2-2.2 3.7-4.3 3.7-4.6 0-.4-8.4-.8-18.7-.9-10.4-.1-32.7-.4-49.7-.7l-30.8-.5-5.2 5.3zM54.7 57.8c.4.9 2.6 5.5 5.1 10.2C71.7 90.7 75.5 97.9 78 102.5c1.5 2.7 5.8 10.8 9.5 18 3.7 7.1 8.2 15.7 10 19 1.8 3.3 5.8 10.9 9 17 3.2 6 7.4 14.1 9.5 18 2 3.8 6.3 11.9 9.5 18 3.2 6 7.6 14.4 9.8 18.5 2.2 4.1 6 11.3 8.5 16 2.4 4.7 6.1 11.6 8.2 15.5 2.1 3.8 6.1 11.5 9 17 2.9 5.5 6.7 12.7 8.5 16 1.7 3.3 4.7 8.8 6.5 12.2l3.3 6.3h98.8l-2.9-5.3c-1.6-2.8-5.1-9.3-7.7-14.2-2.7-5-11.1-20.7-18.8-35-14.5-27.1-19.4-36.2-25.7-48-8.3-15.6-11.3-21.1-26-48-16.9-31-17.6-32.3-28.2-51.5-9.7-17.5-15.9-28.9-17.2-31.7-.6-1.3-1.8-2.6-2.6-3-.8-.3-22.5-.8-48.2-.9-43.7-.3-46.7-.2-46.1 1.4zm36.2 141c-10.9 11.3-36 37.8-41 43.3-3.8 4.2-23.2 25-25.4 27.3C12.6 281.8 3.9 292.3 5 293c.7.5 23 .9 49.4.9l48.2.2 11-11.8C136.4 258 138 256 137 253.4c-1.9-4.9-5.5-12.4-17.2-35.9-12.7-25.3-15.5-30.5-16.7-30.5-.5 0-6 5.3-12.2 11.8z"/></svg>